<svg width="135" height="78" viewBox="0 0 135 78" fill="none" xmlns="http://www.w3.org/2000/svg">
<g clip-path="url(#clip0_371_52382)">
<rect x="134.5" y="59.7412" width="5.43103" height="5.43103" transform="rotate(180 134.5 59.7412)" fill="#E544FF"/>
<rect x="129.07" y="65.1726" width="5.43103" height="5.43103" transform="rotate(180 129.07 65.1726)" fill="#E544FF"/>
<rect x="123.637" y="70.6035" width="5.43103" height="5.43103" transform="rotate(180 123.637 70.6035)" fill="#E544FF"/>
<rect x="118.207" y="70.6035" width="5.43103" height="5.43103" transform="rotate(180 118.207 70.6035)" fill="#E544FF"/>
<rect x="112.777" y="76.0344" width="5.43103" height="5.43103" transform="rotate(180 112.777 76.0344)" fill="#E544FF"/>
<rect x="107.344" y="76.0344" width="5.43103" height="5.43103" transform="rotate(180 107.344 76.0344)" fill="#E544FF"/>
<rect x="101.914" y="81.4656" width="5.43103" height="5.43103" transform="rotate(180 101.914 81.4656)" fill="#E544FF"/>
<rect x="96.4805" y="81.4656" width="5.43103" height="5.43103" transform="rotate(180 96.4805 81.4656)" fill="#E544FF"/>
<rect x="53.0352" y="81.4656" width="5.43103" height="5.43103" transform="rotate(180 53.0352 81.4656)" fill="#E544FF"/>
<rect x="53.0352" y="76.0344" width="5.43103" height="5.43103" transform="rotate(180 53.0352 76.0344)" fill="#E544FF"/>
<rect x="58.4648" y="76.0344" width="5.43103" height="5.43103" transform="rotate(180 58.4648 76.0344)" fill="#E544FF"/>
<rect x="58.4648" y="70.6035" width="5.43103" height="5.43103" transform="rotate(180 58.4648 70.6035)" fill="#E544FF"/>
<rect x="63.8984" y="70.6035" width="5.43103" height="5.43103" transform="rotate(180 63.8984 70.6035)" fill="#E544FF"/>
<rect x="63.8984" y="65.1726" width="5.43103" height="5.43103" transform="rotate(180 63.8984 65.1726)" fill="#E544FF"/>
<rect x="63.8984" y="59.7415" width="5.43103" height="5.43103" transform="rotate(180 63.8984 59.7415)" fill="#E544FF"/>
<rect x="69.3281" y="59.7415" width="5.43103" height="5.43103" transform="rotate(180 69.3281 59.7415)" fill="#E544FF"/>
<rect x="74.7578" y="54.3103" width="5.43103" height="5.43103" transform="rotate(180 74.7578 54.3103)" fill="#E544FF"/>
<rect x="80.1875" y="48.8794" width="5.43103" height="5.43103" transform="rotate(180 80.1875 48.8794)" fill="#E544FF"/>
<rect x="80.1875" y="43.4482" width="5.43103" height="5.43103" transform="rotate(180 80.1875 43.4482)" fill="#E544FF"/>
<rect x="85.6211" y="43.4482" width="5.43103" height="5.43103" transform="rotate(180 85.6211 43.4482)" fill="#E544FF"/>
<rect x="85.6211" y="38.0173" width="5.43103" height="5.43103" transform="rotate(180 85.6211 38.0173)" fill="#E544FF"/>
<rect x="91.0547" y="38.0173" width="5.43103" height="5.43103" transform="rotate(180 91.0547 38.0173)" fill="#E544FF"/>
<rect x="91.0547" y="32.5864" width="5.43103" height="5.43103" transform="rotate(180 91.0547 32.5864)" fill="#E544FF"/>
<rect x="96.4805" y="32.5864" width="5.43103" height="5.43103" transform="rotate(180 96.4805 32.5864)" fill="#E544FF"/>
<rect x="96.4805" y="27.1553" width="5.43103" height="5.43103" transform="rotate(180 96.4805 27.1553)" fill="#E544FF"/>
<rect x="101.914" y="27.1553" width="5.43103" height="5.43103" transform="rotate(180 101.914 27.1553)" fill="#E544FF"/>
<rect x="101.914" y="21.7241" width="5.43103" height="5.43103" transform="rotate(180 101.914 21.7241)" fill="#E544FF"/>
<rect x="101.914" y="16.2932" width="5.43103" height="5.43103" transform="rotate(180 101.914 16.2932)" fill="#E544FF"/>
<rect x="101.914" y="10.8621" width="5.43103" height="5.43103" transform="rotate(180 101.914 10.8621)" fill="#E544FF"/>
<rect x="96.4805" y="5.43115" width="5.43103" height="5.43103" transform="rotate(180 96.4805 5.43115)" fill="#E544FF"/>
<rect x="91.0547" y="5.43115" width="5.43103" height="5.43103" transform="rotate(180 91.0547 5.43115)" fill="#E544FF"/>
<rect x="85.6211" y="5.43115" width="5.43103" height="5.43103" transform="rotate(180 85.6211 5.43115)" fill="#E544FF"/>
<rect x="80.1875" y="5.43115" width="5.43103" height="5.43103" transform="rotate(180 80.1875 5.43115)" fill="#E544FF"/>
<rect x="74.7578" y="10.8621" width="5.43103" height="5.43103" transform="rotate(180 74.7578 10.8621)" fill="#E544FF"/>
<rect x="69.3281" y="10.8621" width="5.43103" height="5.43103" transform="rotate(180 69.3281 10.8621)" fill="#E544FF"/>
<rect x="63.8984" y="16.2932" width="5.43103" height="5.43103" transform="rotate(180 63.8984 16.2932)" fill="#E544FF"/>
<rect x="58.4648" y="16.2932" width="5.43103" height="5.43103" transform="rotate(180 58.4648 16.2932)" fill="#E544FF"/>
<rect x="53.0352" y="21.7241" width="5.43103" height="5.43103" transform="rotate(180 53.0352 21.7241)" fill="#E544FF"/>
<rect x="47.6016" y="27.1553" width="5.43103" height="5.43103" transform="rotate(180 47.6016 27.1553)" fill="#E544FF"/>
<rect x="42.1719" y="27.1553" width="5.43103" height="5.43103" transform="rotate(180 42.1719 27.1553)" fill="#E544FF"/>
<rect x="36.7422" y="32.5864" width="5.43103" height="5.43103" transform="rotate(180 36.7422 32.5864)" fill="#E544FF"/>
<rect x="31.3125" y="38.0173" width="5.43103" height="5.43103" transform="rotate(180 31.3125 38.0173)" fill="#E544FF"/>
<rect x="25.8789" y="43.4482" width="5.43103" height="5.43103" transform="rotate(180 25.8789 43.4482)" fill="#E544FF"/>
<rect x="20.4453" y="43.4482" width="5.43103" height="5.43103" transform="rotate(180 20.4453 43.4482)" fill="#E544FF"/>
<rect x="15.0195" y="48.8794" width="5.43103" height="5.43103" transform="rotate(180 15.0195 48.8794)" fill="#E544FF"/>
<rect x="9.58594" y="54.3103" width="5.43103" height="5.43103" transform="rotate(180 9.58594 54.3103)" fill="#E544FF"/>
<rect x="4.15625" y="59.7412" width="5.43103" height="5.43103" transform="rotate(180 4.15625 59.7412)" fill="#E544FF"/>
<rect x="134.5" y="62.4568" width="5.43103" height="5.43103" transform="rotate(180 134.5 62.4568)" fill="#63FFD0"/>
<rect x="129.07" y="67.8879" width="5.43103" height="5.43103" transform="rotate(180 129.07 67.8879)" fill="#63FFD0"/>
<rect x="123.637" y="73.3188" width="5.43103" height="5.43103" transform="rotate(180 123.637 73.3188)" fill="#63FFD0"/>
<rect x="118.207" y="73.3188" width="5.43103" height="5.43103" transform="rotate(180 118.207 73.3188)" fill="#63FFD0"/>
<rect x="112.777" y="78.75" width="5.43103" height="5.43103" transform="rotate(180 112.777 78.75)" fill="#63FFD0"/>
<rect x="107.344" y="78.75" width="5.43103" height="5.43103" transform="rotate(180 107.344 78.75)" fill="#63FFD0"/>
<rect x="53.0352" y="78.75" width="5.43103" height="5.43103" transform="rotate(180 53.0352 78.75)" fill="#63FFD0"/>
<rect x="58.4648" y="78.75" width="5.43103" height="5.43103" transform="rotate(180 58.4648 78.75)" fill="#63FFD0"/>
<rect x="58.4648" y="73.3188" width="5.43103" height="5.43103" transform="rotate(180 58.4648 73.3188)" fill="#63FFD0"/>
<rect x="63.8984" y="73.3188" width="5.43103" height="5.43103" transform="rotate(180 63.8984 73.3188)" fill="#63FFD0"/>
<rect x="63.8984" y="67.8879" width="5.43103" height="5.43103" transform="rotate(180 63.8984 67.8879)" fill="#63FFD0"/>
<rect x="63.8984" y="62.4568" width="5.43103" height="5.43103" transform="rotate(180 63.8984 62.4568)" fill="#63FFD0"/>
<rect x="69.3281" y="62.4568" width="5.43103" height="5.43103" transform="rotate(180 69.3281 62.4568)" fill="#63FFD0"/>
<rect x="74.7578" y="57.0259" width="5.43103" height="5.43103" transform="rotate(180 74.7578 57.0259)" fill="#63FFD0"/>
<rect x="80.1875" y="51.595" width="5.43103" height="5.43103" transform="rotate(180 80.1875 51.595)" fill="#63FFD0"/>
<rect x="80.1875" y="46.1638" width="5.43103" height="5.43103" transform="rotate(180 80.1875 46.1638)" fill="#63FFD0"/>
<rect x="85.6211" y="46.1638" width="5.43103" height="5.43103" transform="rotate(180 85.6211 46.1638)" fill="#63FFD0"/>
<rect x="85.6211" y="40.7327" width="5.43103" height="5.43103" transform="rotate(180 85.6211 40.7327)" fill="#63FFD0"/>
<rect x="91.0547" y="40.7327" width="5.43103" height="5.43103" transform="rotate(180 91.0547 40.7327)" fill="#63FFD0"/>
<rect x="91.0547" y="35.3018" width="5.43103" height="5.43103" transform="rotate(180 91.0547 35.3018)" fill="#63FFD0"/>
<rect x="96.4805" y="35.3018" width="5.43103" height="5.43103" transform="rotate(180 96.4805 35.3018)" fill="#63FFD0"/>
<rect x="96.4805" y="29.8706" width="5.43103" height="5.43103" transform="rotate(180 96.4805 29.8706)" fill="#63FFD0"/>
<rect x="101.914" y="29.8706" width="5.43103" height="5.43103" transform="rotate(180 101.914 29.8706)" fill="#63FFD0"/>
<rect x="101.914" y="24.4397" width="5.43103" height="5.43103" transform="rotate(180 101.914 24.4397)" fill="#63FFD0"/>
<rect x="101.914" y="19.0088" width="5.43103" height="5.43103" transform="rotate(180 101.914 19.0088)" fill="#63FFD0"/>
<rect x="101.914" y="13.5776" width="5.43103" height="5.43103" transform="rotate(180 101.914 13.5776)" fill="#63FFD0"/>
<rect x="96.4805" y="8.14648" width="5.43103" height="5.43103" transform="rotate(180 96.4805 8.14648)" fill="#63FFD0"/>
<rect x="91.0547" y="8.14648" width="5.43103" height="5.43103" transform="rotate(180 91.0547 8.14648)" fill="#63FFD0"/>
<rect x="85.6211" y="8.14648" width="5.43103" height="5.43103" transform="rotate(180 85.6211 8.14648)" fill="#63FFD0"/>
<rect x="80.1875" y="8.14648" width="5.43103" height="5.43103" transform="rotate(180 80.1875 8.14648)" fill="#63FFD0"/>
<rect x="74.7578" y="13.5776" width="5.43103" height="5.43103" transform="rotate(180 74.7578 13.5776)" fill="#63FFD0"/>
<rect x="69.3281" y="13.5776" width="5.43103" height="5.43103" transform="rotate(180 69.3281 13.5776)" fill="#63FFD0"/>
<rect x="63.8984" y="19.0088" width="5.43103" height="5.43103" transform="rotate(180 63.8984 19.0088)" fill="#63FFD0"/>
<rect x="58.4648" y="19.0088" width="5.43103" height="5.43103" transform="rotate(180 58.4648 19.0088)" fill="#63FFD0"/>
<rect x="53.0352" y="24.4397" width="5.43103" height="5.43103" transform="rotate(180 53.0352 24.4397)" fill="#63FFD0"/>
<rect x="47.6016" y="29.8706" width="5.43103" height="5.43103" transform="rotate(180 47.6016 29.8706)" fill="#63FFD0"/>
<rect x="42.1719" y="29.8706" width="5.43103" height="5.43103" transform="rotate(180 42.1719 29.8706)" fill="#63FFD0"/>
<rect x="36.7422" y="35.3018" width="5.43103" height="5.43103" transform="rotate(180 36.7422 35.3018)" fill="#63FFD0"/>
<rect x="31.3125" y="40.7327" width="5.43103" height="5.43103" transform="rotate(180 31.3125 40.7327)" fill="#63FFD0"/>
<rect x="25.8789" y="46.1638" width="5.43103" height="5.43103" transform="rotate(180 25.8789 46.1638)" fill="#63FFD0"/>
<rect x="20.4453" y="46.1638" width="5.43103" height="5.43103" transform="rotate(180 20.4453 46.1638)" fill="#63FFD0"/>
<rect x="15.0195" y="51.595" width="5.43103" height="5.43103" transform="rotate(180 15.0195 51.595)" fill="#63FFD0"/>
<rect x="9.58594" y="57.0259" width="5.43103" height="5.43103" transform="rotate(180 9.58594 57.0259)" fill="#63FFD0"/>
<rect x="4.15625" y="62.4568" width="5.43103" height="5.43103" transform="rotate(180 4.15625 62.4568)" fill="#63FFD0"/>
</g>
<defs>
<clipPath id="clip0_371_52382">
<rect width="157.5" height="100.474" fill="white" transform="matrix(-1 0 0 -1 134.5 100.474)"/>
</clipPath>
</defs>
</svg>
