<svg width="39" height="838" viewBox="0 0 39 838" fill="none" xmlns="http://www.w3.org/2000/svg">
<g clip-path="url(#clip0_371_52620)">
<rect width="838" height="39" transform="matrix(1.19249e-08 -1 -1 -1.19249e-08 39 838)" fill="#002EE9"/>
<rect width="838" height="12" transform="matrix(1.16972e-08 -1 -1 -1.2157e-08 9 838)" fill="#00F0FF"/>
<rect width="838" height="8.00001" transform="matrix(1.16972e-08 -1 -1 -1.2157e-08 21 838)" fill="#00F0FF"/>
<rect width="838" height="6.00001" transform="matrix(1.16972e-08 -1 -1 -1.2157e-08 29 838)" fill="#00F0FF"/>
<rect width="838" height="4.00001" transform="matrix(1.16972e-08 -1 -1 -1.2157e-08 35 838)" fill="#00F0FF"/>
<rect width="838" height="2.00001" transform="matrix(1.16972e-08 -1 -1 -1.2157e-08 39 838)" fill="#00F0FF"/>
</g>
<defs>
<clipPath id="clip0_371_52620">
<rect width="838" height="39" fill="white" transform="matrix(1.19249e-08 -1 -1 -1.19249e-08 39 838)"/>
</clipPath>
</defs>
</svg>
