<svg width="80" height="151" viewBox="0 0 80 151" fill="none" xmlns="http://www.w3.org/2000/svg">
<rect y="70" width="10" height="10" fill="white"/>
<rect x="30" y="40" width="10" height="10" fill="white"/>
<rect x="50" width="10" height="10" fill="white"/>
<rect x="40" y="10" width="10" height="10" fill="white"/>
<rect x="70" y="20" width="10" height="10" fill="white"/>
<rect x="30" y="60" width="10" height="10" fill="white"/>
<rect x="30" y="70" width="10" height="10" fill="white"/>
<rect x="40" y="70" width="10" height="10" fill="white"/>
<rect x="10" y="80" width="10" height="10" fill="white"/>
<rect x="20" y="90" width="10" height="10" fill="white"/>
<rect x="20" y="100" width="10" height="10" fill="white"/>
<rect x="10" y="110" width="10" height="10" fill="white"/>
<rect y="120" width="10" height="10" fill="white"/>
<rect y="130" width="10" height="10" fill="white"/>
<rect x="10" y="140" width="10" height="10" fill="white"/>
<rect x="20" y="150" width="10" height="10" fill="white"/>
</svg>
