<svg width="315" height="205" viewBox="0 0 315 205" fill="none" xmlns="http://www.w3.org/2000/svg">
<path d="M50.1394 99.0098L49.9482 111.943L115.361 82.646L114.756 41.5653L155.198 72.6512L250.167 64.2861L243.49 54.7941L305.364 99.4012L283.33 90.3262L202.67 135.183L192.861 164.565L141.159 146.803L48.1609 149.329L25.3447 171.374L50.1394 99.0098Z" fill="black"/>
<path d="M114.756 41.5653L124.083 78.7398M114.756 41.5653L155.198 72.6512M114.756 41.5653L115.361 82.646M114.756 41.5653L133.569 65.1926M124.083 78.7398L115.361 82.646M124.083 78.7398L133.569 65.1926M124.083 78.7398L137.443 106.312L144.123 120.098M124.083 78.7398L149.149 89.6309M49.9482 111.943L50.1394 99.0098L25.3447 171.374M49.9482 111.943L115.361 82.646M49.9482 111.943L41.6871 140.645M25.3447 171.374L48.1609 149.329M25.3447 171.374L41.6871 140.645M48.1609 149.329L141.159 146.803M48.1609 149.329L41.6871 140.645M163.343 146.201L192.861 164.565M163.343 146.201L150.803 133.884M163.343 146.201L141.159 146.803M192.861 164.565L198.901 137.279M192.861 164.565L141.159 146.803M192.861 164.565L202.67 135.183M198.901 137.279L198.081 123.741M198.901 137.279L202.67 135.183M283.33 90.3262L305.364 99.4012M283.33 90.3262L202.67 135.183M283.33 90.3262L277.464 84.0668M305.364 99.4012L243.49 54.7941L250.167 64.2861M305.364 99.4012L277.464 84.0668M250.167 64.2861L155.198 72.6512M250.167 64.2861L277.464 84.0668M155.198 72.6512L133.569 65.1926M155.198 72.6512L176.639 98.196L187.36 110.968M155.198 72.6512L149.149 89.6309M41.6871 140.645L150.803 133.884M41.6871 140.645L141.159 146.803M150.803 133.884L198.081 123.741M150.803 133.884L141.159 146.803M150.803 133.884L144.123 120.098M198.081 123.741L277.464 84.0668M198.081 123.741L187.36 110.968M198.081 123.741L202.67 135.183M277.464 84.0668L202.67 135.183M179.914 147.197L186.284 145.198M187.36 110.968L149.149 89.6309M144.123 120.098L149.149 89.6309M177.478 134.064L182.233 132.476L184.754 135.675L184.554 138.302L183.25 139.952L179.303 141.337L177.281 140.127L176.47 136.894L177.478 134.064Z" stroke="white" stroke-width="1.66637"/>
</svg>
