<svg width="112" height="61" viewBox="0 0 112 61" fill="none" xmlns="http://www.w3.org/2000/svg">
<path d="M99.5317 57.0558L111.28 53.1108L97.5268 38.8458L61.502 16.6109L24.106 3.01281L0.366537 1.09085L2.2995 9.58933L29.0713 52.3549L28.8159 59.8722L40.2545 57.2426L99.5317 57.0558Z" fill="#002EE9"/>
<path d="M44.422 28.4862L71.0649 40.3955M44.422 28.4862L30.1949 45.7146M44.422 28.4862L0.366538 1.09084M44.422 28.4862L2.2995 9.58933M71.0649 40.3955L111.28 53.1108M71.0649 40.3955L51.6932 54.613M71.0649 40.3955L99.5317 57.0558M111.28 53.1108L99.5317 57.0558M111.28 53.1108L97.5268 38.8458L61.502 16.6109L24.106 3.01281L0.366538 1.09084M99.5317 57.0558L51.6932 54.613M99.5317 57.0558L40.2545 57.2426M51.6932 54.613L30.1949 45.7146M51.6932 54.613L35.5323 53.9033M51.6932 54.613L40.2545 57.2426M30.1949 45.7146L28.8159 59.8722M30.1949 45.7146L35.5323 53.9033M30.1949 45.7146C29.9615 45.5043 29.67 45.2089 29.3268 44.8377M2.2995 9.58933L0.366538 1.09084M2.2995 9.58933C9.61768 19.602 24.5271 39.6453 29.3268 44.8377M2.2995 9.58933L29.0713 52.3549M28.8159 59.8722L35.5323 53.9033M28.8159 59.8722L40.2545 57.2426M28.8159 59.8722L29.0713 52.3549M29.3268 44.8377L29.0713 52.3549M23.3078 11.064L21.7976 6.957L25.4573 8.17796L23.3078 11.064ZM92.7718 43.4301L96.6488 42.7062L94.6787 40.1719L94.0765 41.2008L92.7718 43.4301ZM62.323 32.5165L64.84 22.7086L75.4722 28.9311L74.218 35.7946L62.323 32.5165ZM55.978 28.8031L60.0384 19.8984L47.5578 16.0474L44.4465 21.3635L55.978 28.8031Z" stroke="white" stroke-width="0.397394"/>
</svg>
