<svg width="143" height="86" viewBox="0 0 143 86" fill="none" xmlns="http://www.w3.org/2000/svg">
<g clip-path="url(#clip0_371_52513)">
<rect width="7.5" height="7.5" transform="matrix(1 0 0 -1 45 82.25)" fill="#00FF38"/>
<rect width="7.5" height="7.5" transform="matrix(1 0 0 -1 37.5 74.75)" fill="#00FF38"/>
<rect width="7.5" height="7.5" transform="matrix(1 0 0 -1 30 67.25)" fill="#00FF38"/>
<rect width="7.5" height="7.5" transform="matrix(1 0 0 -1 7.5 37.25)" fill="#00FF38"/>
<rect width="7.5" height="7.5" transform="matrix(1 0 0 -1 22.5 44.75)" fill="#00FF38"/>
<rect width="7.5" height="7.5" transform="matrix(1 0 0 -1 30 44.75)" fill="#00FF38"/>
<rect width="7.5" height="7.5" transform="matrix(1 0 0 -1 37.5 52.25)" fill="#00FF38"/>
<rect width="7.5" height="7.5" transform="matrix(1 0 0 -1 30 59.75)" fill="#00FF38"/>
<rect width="7.5" height="7.5" transform="matrix(1 0 0 -1 45 59.75)" fill="#00FF38"/>
<rect width="7.5" height="7.5" transform="matrix(1 0 0 -1 45 67.25)" fill="#00FF38"/>
<rect width="7.5" height="7.5" transform="matrix(1 0 0 -1 52.5 67.25)" fill="#00FF38"/>
<rect width="7.5" height="7.5" transform="matrix(1 0 0 -1 60 59.75)" fill="#00FF38"/>
<rect width="7.5" height="7.5" transform="matrix(1 0 0 -1 67.5 67.25)" fill="#00FF38"/>
<rect width="7.5" height="7.5" transform="matrix(1 0 0 -1 67.5 74.75)" fill="#00FF38"/>
<rect width="7.5" height="7.5" transform="matrix(1 0 0 -1 75 74.75)" fill="#00FF38"/>
<rect width="7.5" height="7.5" transform="matrix(1 0 0 -1 82.5 82.25)" fill="#00FF38"/>
<rect width="7.5" height="7.5" transform="matrix(1 0 0 -1 90 82.25)" fill="#00FF38"/>
<rect width="7.5" height="7.5" transform="matrix(1 0 0 -1 105 74.75)" fill="#00FF38"/>
<rect width="7.5" height="7.5" transform="matrix(1 0 0 -1 97.5 82.25)" fill="#00FF38"/>
<rect width="7.5" height="7.5" transform="matrix(1 0 0 -1 75 44.75)" fill="#00FF38"/>
<rect width="7.5" height="7.5" transform="matrix(1 0 0 -1 97.5 67.25)" fill="#00FF38"/>
<rect width="7.5" height="7.5" transform="matrix(1 0 0 -1 82.5 67.25)" fill="#00FF38"/>
<rect width="7.5" height="7.5" transform="matrix(1 0 0 -1 75 59.75)" fill="#00FF38"/>
<rect width="7.5" height="7.5" transform="matrix(1 0 0 -1 67.5 52.25)" fill="#00FF38"/>
<rect width="7.5" height="7.5" transform="matrix(1 0 0 -1 90 44.75)" fill="#00FF38"/>
<rect width="7.5" height="7.5" transform="matrix(1 0 0 -1 97.5 44.75)" fill="#00FF38"/>
<rect width="7.5" height="7.5" transform="matrix(1 0 0 -1 105 44.75)" fill="#00FF38"/>
<rect width="7.5" height="7.5" transform="matrix(1 0 0 -1 112.5 52.25)" fill="#00FF38"/>
<rect width="7.5" height="7.5" transform="matrix(1 0 0 -1 120 59.75)" fill="#00FF38"/>
<rect width="7.5" height="7.5" transform="matrix(1 0 0 -1 127.5 52.25)" fill="#00FF38"/>
<rect width="7.5" height="7.5" transform="matrix(1 0 0 -1 135 59.75)" fill="#00FF38"/>
<rect width="7.5" height="7.5" transform="matrix(1 0 0 -1 129.75 29.75)" fill="#00FF38"/>
<rect width="7.5" height="7.5" transform="matrix(1 0 0 -1 129.75 22.25)" fill="#00FF38"/>
<rect width="7.5" height="7.5" transform="matrix(1 0 0 -1 122.25 22.25)" fill="#00FF38"/>
<rect width="7.5" height="7.5" transform="matrix(1 0 0 -1 122.25 14.75)" fill="#00FF38"/>
<rect width="7.5" height="7.5" transform="matrix(1 0 0 -1 114.75 14.75)" fill="#00FF38"/>
<rect width="7.5" height="7.5" transform="matrix(1 0 0 -1 114.75 7.25)" fill="#00FF38"/>
<rect width="7.5" height="7.5" transform="matrix(1 0 0 -1 107.25 7.25)" fill="#00FF38"/>
<rect width="7.5" height="7.5" transform="matrix(1 0 0 -1 52.5 14.75)" fill="#00FF38"/>
<rect width="7.5" height="7.5" transform="matrix(1 0 0 -1 67.5 37.25)" fill="#00FF38"/>
<rect width="7.5" height="7.5" transform="matrix(1 0 0 -1 90 59.75)" fill="#00FF38"/>
<rect width="7.5" height="7.5" transform="matrix(1 0 0 -1 60 29.75)" fill="#00FF38"/>
<rect width="7.5" height="7.5" transform="matrix(1 0 0 -1 45 14.75)" fill="#00FF38"/>
<rect width="7.5" height="7.5" transform="matrix(1 0 0 -1 37.5 7.25)" fill="#00FF38"/>
<rect width="7.5" height="7.5" transform="matrix(1 0 0 -1 82.5 52.25)" fill="#00FF38"/>
<rect width="7.5" height="7.5" transform="matrix(1 0 0 -1 52.5 22.25)" fill="#00FF38"/>
<rect width="7.5" height="7.5" transform="matrix(1 0 0 -1 22.5 59.75)" fill="#00FF38"/>
<rect width="7.5" height="7.5" transform="matrix(1 0 0 -1 15 52.25)" fill="#00FF38"/>
<rect width="7.5" height="7.5" transform="matrix(1 0 0 -1 7.5 44.75)" fill="#00FF38"/>
<rect width="7.5" height="7.5" transform="matrix(1 0 0 -1 0 37.25)" fill="#00FF38"/>
<rect width="7.5" height="7.5" transform="matrix(1 0 0 -1 45 86)" fill="#E544FF"/>
<rect width="7.5" height="7.5" transform="matrix(1 0 0 -1 37.5 78.5)" fill="#E544FF"/>
<rect width="7.5" height="7.5" transform="matrix(1 0 0 -1 30 71)" fill="#E544FF"/>
<rect width="7.5" height="7.5" transform="matrix(1 0 0 -1 7.5 41)" fill="#E544FF"/>
<rect width="7.5" height="7.5" transform="matrix(1 0 0 -1 22.5 48.5)" fill="#E544FF"/>
<rect width="7.5" height="7.5" transform="matrix(1 0 0 -1 30 48.5)" fill="#E544FF"/>
<rect width="7.5" height="7.5" transform="matrix(1 0 0 -1 37.5 56)" fill="#E544FF"/>
<rect width="7.5" height="7.5" transform="matrix(1 0 0 -1 30 63.5)" fill="#E544FF"/>
<rect width="7.5" height="7.5" transform="matrix(1 0 0 -1 45 63.5)" fill="#E544FF"/>
<rect width="7.5" height="7.5" transform="matrix(1 0 0 -1 45 71)" fill="#E544FF"/>
<rect width="7.5" height="7.5" transform="matrix(1 0 0 -1 52.5 71)" fill="#E544FF"/>
<rect width="7.5" height="7.5" transform="matrix(1 0 0 -1 60 63.5)" fill="#E544FF"/>
<rect width="7.5" height="7.5" transform="matrix(1 0 0 -1 67.5 71)" fill="#E544FF"/>
<rect width="7.5" height="7.5" transform="matrix(1 0 0 -1 67.5 78.5)" fill="#E544FF"/>
<rect width="7.5" height="7.5" transform="matrix(1 0 0 -1 75 78.5)" fill="#E544FF"/>
<rect width="7.5" height="7.5" transform="matrix(1 0 0 -1 82.5 86)" fill="#E544FF"/>
<rect width="7.5" height="7.5" transform="matrix(1 0 0 -1 90 86)" fill="#E544FF"/>
<rect width="7.5" height="7.5" transform="matrix(1 0 0 -1 105 78.5)" fill="#E544FF"/>
<rect width="7.5" height="7.5" transform="matrix(1 0 0 -1 97.5 86)" fill="#E544FF"/>
<rect width="7.5" height="7.5" transform="matrix(1 0 0 -1 75 48.5)" fill="#E544FF"/>
<rect width="7.5" height="7.5" transform="matrix(1 0 0 -1 97.5 71)" fill="#E544FF"/>
<rect width="7.5" height="7.5" transform="matrix(1 0 0 -1 82.5 71)" fill="#E544FF"/>
<rect width="7.5" height="7.5" transform="matrix(1 0 0 -1 75 63.5)" fill="#E544FF"/>
<rect width="7.5" height="7.5" transform="matrix(1 0 0 -1 67.5 56)" fill="#E544FF"/>
<rect width="7.5" height="7.5" transform="matrix(1 0 0 -1 90 48.5)" fill="#E544FF"/>
<rect width="7.5" height="7.5" transform="matrix(1 0 0 -1 97.5 48.5)" fill="#E544FF"/>
<rect width="7.5" height="7.5" transform="matrix(1 0 0 -1 105 48.5)" fill="#E544FF"/>
<rect width="7.5" height="7.5" transform="matrix(1 0 0 -1 112.5 56)" fill="#E544FF"/>
<rect width="7.5" height="7.5" transform="matrix(1 0 0 -1 120 63.5)" fill="#E544FF"/>
<rect width="7.5" height="7.5" transform="matrix(1 0 0 -1 127.5 56)" fill="#E544FF"/>
<rect width="7.5" height="7.5" transform="matrix(1 0 0 -1 135 63.5)" fill="#E544FF"/>
<rect width="7.5" height="7.5" transform="matrix(1 0 0 -1 129.75 33.5)" fill="#E544FF"/>
<rect width="7.5" height="7.5" transform="matrix(1 0 0 -1 129.75 26)" fill="#E544FF"/>
<rect width="7.5" height="7.5" transform="matrix(1 0 0 -1 122.25 26)" fill="#E544FF"/>
<rect width="7.5" height="7.5" transform="matrix(1 0 0 -1 122.25 18.5)" fill="#E544FF"/>
<rect width="7.5" height="7.5" transform="matrix(1 0 0 -1 114.75 18.5)" fill="#E544FF"/>
<rect width="7.5" height="7.5" transform="matrix(1 0 0 -1 114.75 11)" fill="#E544FF"/>
<rect width="7.5" height="7.5" transform="matrix(1 0 0 -1 107.25 11)" fill="#E544FF"/>
<rect width="7.5" height="7.5" transform="matrix(1 0 0 -1 52.5 18.5)" fill="#E544FF"/>
<rect width="7.5" height="7.5" transform="matrix(1 0 0 -1 67.5 41)" fill="#E544FF"/>
<rect width="7.5" height="7.5" transform="matrix(1 0 0 -1 90 63.5)" fill="#E544FF"/>
<rect width="7.5" height="7.5" transform="matrix(1 0 0 -1 60 33.5)" fill="#E544FF"/>
<rect width="7.5" height="7.5" transform="matrix(1 0 0 -1 45 18.5)" fill="#E544FF"/>
<rect width="7.5" height="7.5" transform="matrix(1 0 0 -1 37.5 11)" fill="#E544FF"/>
<rect width="7.5" height="7.5" transform="matrix(1 0 0 -1 82.5 56)" fill="#E544FF"/>
<rect width="7.5" height="7.5" transform="matrix(1 0 0 -1 52.5 26)" fill="#E544FF"/>
<rect width="7.5" height="7.5" transform="matrix(1 0 0 -1 22.5 63.5)" fill="#E544FF"/>
<rect width="7.5" height="7.5" transform="matrix(1 0 0 -1 15 56)" fill="#E544FF"/>
<rect width="7.5" height="7.5" transform="matrix(1 0 0 -1 7.5 48.5)" fill="#E544FF"/>
<rect width="7.5" height="7.5" transform="matrix(1 0 0 -1 0 41)" fill="#E544FF"/>
</g>
<defs>
<clipPath id="clip0_371_52513">
<rect width="157.5" height="86.25" fill="white" transform="matrix(-1 0 0 -1 142.5 86)"/>
</clipPath>
</defs>
</svg>
