<svg width="19" height="20" viewBox="0 0 19 20" fill="none" xmlns="http://www.w3.org/2000/svg">
<path d="M8.77403 0.616455H10.3302V19.291H8.77403V0.616455Z" fill="#00FF38"/>
<path d="M18.8894 9.17564V10.7319L0.214844 10.7319L0.214844 9.17564L18.8894 9.17564Z" fill="#00FF38"/>
<path d="M17.7729 14.4502L16.9153 15.7487L1.33246 5.45721L2.19009 4.15864L17.7729 14.4502Z" fill="#00FF38"/>
<path d="M14.7659 17.7399L13.4054 18.4956L4.33748 2.17035L5.69792 1.41468L14.7659 17.7399Z" fill="#00FF38"/>
<path d="M14.7659 17.7399L13.4054 18.4956L4.33748 2.17035L5.69792 1.41468L14.7659 17.7399Z" fill="#00FF38"/>
<path d="M1.33236 14.4502L2.18999 15.7487L17.7728 5.45721L16.9152 4.15864L1.33236 14.4502Z" fill="#00FF38"/>
<path d="M4.33942 17.7399L5.69986 18.4956L14.7678 2.17035L13.4074 1.41468L4.33942 17.7399Z" fill="#00FF38"/>
</svg>
