<svg width="160" height="158" viewBox="0 0 160 158" fill="none" xmlns="http://www.w3.org/2000/svg">
<rect y="48" width="10" height="10" fill="#E544FF"/>
<rect x="10" y="38" width="10" height="10" fill="#E544FF"/>
<rect x="20" y="28" width="10" height="10" fill="#E544FF"/>
<rect x="30" y="28" width="10" height="10" fill="#E544FF"/>
<rect x="40" y="18" width="10" height="10" fill="#E544FF"/>
<rect x="50" y="18" width="10" height="10" fill="#E544FF"/>
<rect x="60" y="8" width="10" height="10" fill="#E544FF"/>
<rect x="70" y="8" width="10" height="10" fill="#E544FF"/>
<rect x="80" y="-2" width="10" height="10" fill="#E544FF"/>
<rect x="90" y="-2" width="10" height="10" fill="#E544FF"/>
<rect x="150" y="8" width="10" height="10" fill="#E544FF"/>
<rect x="150" y="18" width="10" height="10" fill="#E544FF"/>
<rect x="140" y="18" width="10" height="10" fill="#E544FF"/>
<rect x="140" y="28" width="10" height="10" fill="#E544FF"/>
<rect x="130" y="28" width="10" height="10" fill="#E544FF"/>
<rect x="130" y="38" width="10" height="10" fill="#E544FF"/>
<rect x="130" y="48" width="10" height="10" fill="#E544FF"/>
<rect x="120" y="48" width="10" height="10" fill="#E544FF"/>
<rect x="110" y="58" width="10" height="10" fill="#E544FF"/>
<rect x="100" y="68" width="10" height="10" fill="#E544FF"/>
<rect x="100" y="78" width="10" height="10" fill="#E544FF"/>
<rect x="90" y="78" width="10" height="10" fill="#E544FF"/>
<rect x="90" y="88" width="10" height="10" fill="#E544FF"/>
<rect x="80" y="88" width="10" height="10" fill="#E544FF"/>
<rect x="80" y="98" width="10" height="10" fill="#E544FF"/>
<rect x="70" y="98" width="10" height="10" fill="#E544FF"/>
<rect x="70" y="108" width="10" height="10" fill="#E544FF"/>
<rect x="60" y="108" width="10" height="10" fill="#E544FF"/>
<rect x="60" y="118" width="10" height="10" fill="#E544FF"/>
<rect x="60" y="128" width="10" height="10" fill="#E544FF"/>
<rect x="60" y="138" width="10" height="10" fill="#E544FF"/>
<rect x="70" y="148" width="10" height="10" fill="#E544FF"/>
<rect x="80" y="148" width="10" height="10" fill="#E544FF"/>
<rect x="90" y="148" width="10" height="10" fill="#E544FF"/>
<rect x="100" y="148" width="10" height="10" fill="#E544FF"/>
<rect x="110" y="138" width="10" height="10" fill="#E544FF"/>
<rect x="120" y="138" width="10" height="10" fill="#E544FF"/>
<rect x="130" y="128" width="10" height="10" fill="#E544FF"/>
<rect x="140" y="128" width="10" height="10" fill="#E544FF"/>
<rect x="150" y="118" width="10" height="10" fill="#E544FF"/>
<rect y="43" width="10" height="10" fill="#63FFD0"/>
<rect x="10" y="33" width="10" height="10" fill="#63FFD0"/>
<rect x="20" y="23" width="10" height="10" fill="#63FFD0"/>
<rect x="30" y="23" width="10" height="10" fill="#63FFD0"/>
<rect x="40" y="13" width="10" height="10" fill="#63FFD0"/>
<rect x="50" y="13" width="10" height="10" fill="#63FFD0"/>
<rect x="60" y="3" width="10" height="10" fill="#63FFD0"/>
<rect x="70" y="3" width="10" height="10" fill="#63FFD0"/>
<rect x="80" y="-7" width="10" height="10" fill="#63FFD0"/>
<rect x="90" y="-7" width="10" height="10" fill="#63FFD0"/>
<rect x="150" y="3" width="10" height="10" fill="#63FFD0"/>
<rect x="150" y="13" width="10" height="10" fill="#63FFD0"/>
<rect x="140" y="13" width="10" height="10" fill="#63FFD0"/>
<rect x="140" y="23" width="10" height="10" fill="#63FFD0"/>
<rect x="130" y="23" width="10" height="10" fill="#63FFD0"/>
<rect x="130" y="33" width="10" height="10" fill="#63FFD0"/>
<rect x="130" y="43" width="10" height="10" fill="#63FFD0"/>
<rect x="120" y="43" width="10" height="10" fill="#63FFD0"/>
<rect x="110" y="53" width="10" height="10" fill="#63FFD0"/>
<rect x="100" y="63" width="10" height="10" fill="#63FFD0"/>
<rect x="100" y="73" width="10" height="10" fill="#63FFD0"/>
<rect x="90" y="73" width="10" height="10" fill="#63FFD0"/>
<rect x="90" y="83" width="10" height="10" fill="#63FFD0"/>
<rect x="80" y="83" width="10" height="10" fill="#63FFD0"/>
<rect x="80" y="93" width="10" height="10" fill="#63FFD0"/>
<rect x="70" y="93" width="10" height="10" fill="#63FFD0"/>
<rect x="70" y="103" width="10" height="10" fill="#63FFD0"/>
<rect x="60" y="103" width="10" height="10" fill="#63FFD0"/>
<rect x="60" y="113" width="10" height="10" fill="#63FFD0"/>
<rect x="60" y="123" width="10" height="10" fill="#63FFD0"/>
<rect x="60" y="133" width="10" height="10" fill="#63FFD0"/>
<rect x="70" y="143" width="10" height="10" fill="#63FFD0"/>
<rect x="80" y="143" width="10" height="10" fill="#63FFD0"/>
<rect x="90" y="143" width="10" height="10" fill="#63FFD0"/>
<rect x="100" y="143" width="10" height="10" fill="#63FFD0"/>
<rect x="110" y="133" width="10" height="10" fill="#63FFD0"/>
<rect x="120" y="133" width="10" height="10" fill="#63FFD0"/>
<rect x="130" y="123" width="10" height="10" fill="#63FFD0"/>
<rect x="140" y="123" width="10" height="10" fill="#63FFD0"/>
<rect x="150" y="113" width="10" height="10" fill="#63FFD0"/>
</svg>
