<svg width="161" height="115" viewBox="0 0 161 115" fill="none" xmlns="http://www.w3.org/2000/svg">
<rect width="10" height="10" transform="matrix(1 0 0 -1 31 110)" fill="#00FF38"/>
<rect width="10" height="10" transform="matrix(1 0 0 -1 21 100)" fill="#00FF38"/>
<rect width="10" height="10" transform="matrix(1 0 0 -1 11 90)" fill="#00FF38"/>
<rect width="10" height="10" transform="matrix(1 0 0 -1 1 60)" fill="#00FF38"/>
<rect width="10" height="10" transform="matrix(1 0 0 -1 11 60)" fill="#00FF38"/>
<rect width="10" height="10" transform="matrix(1 0 0 -1 21 70)" fill="#00FF38"/>
<rect width="10" height="10" transform="matrix(1 0 0 -1 11 80)" fill="#00FF38"/>
<rect width="10" height="10" transform="matrix(1 0 0 -1 31 80)" fill="#00FF38"/>
<rect width="10" height="10" transform="matrix(1 0 0 -1 31 90)" fill="#00FF38"/>
<rect width="10" height="10" transform="matrix(1 0 0 -1 41 90)" fill="#00FF38"/>
<rect width="10" height="10" transform="matrix(1 0 0 -1 51 80)" fill="#00FF38"/>
<rect width="10" height="10" transform="matrix(1 0 0 -1 61 90)" fill="#00FF38"/>
<rect width="10" height="10" transform="matrix(1 0 0 -1 61 100)" fill="#00FF38"/>
<rect width="10" height="10" transform="matrix(1 0 0 -1 71 100)" fill="#00FF38"/>
<rect width="10" height="10" transform="matrix(1 0 0 -1 81 110)" fill="#00FF38"/>
<rect width="10" height="10" transform="matrix(1 0 0 -1 91 110)" fill="#00FF38"/>
<rect width="10" height="10" transform="matrix(1 0 0 -1 111 100)" fill="#00FF38"/>
<rect width="10" height="10" transform="matrix(1 0 0 -1 101 110)" fill="#00FF38"/>
<rect width="10" height="10" transform="matrix(1 0 0 -1 71 60)" fill="#00FF38"/>
<rect width="10" height="10" transform="matrix(1 0 0 -1 101 90)" fill="#00FF38"/>
<rect width="10" height="10" transform="matrix(1 0 0 -1 81 90)" fill="#00FF38"/>
<rect width="10" height="10" transform="matrix(1 0 0 -1 71 80)" fill="#00FF38"/>
<rect width="10" height="10" transform="matrix(1 0 0 -1 61 70)" fill="#00FF38"/>
<rect width="10" height="10" transform="matrix(1 0 0 -1 91 60)" fill="#00FF38"/>
<rect width="10" height="10" transform="matrix(1 0 0 -1 101 60)" fill="#00FF38"/>
<rect width="10" height="10" transform="matrix(1 0 0 -1 111 60)" fill="#00FF38"/>
<rect width="10" height="10" transform="matrix(1 0 0 -1 121 70)" fill="#00FF38"/>
<rect width="10" height="10" transform="matrix(1 0 0 -1 131 80)" fill="#00FF38"/>
<rect width="10" height="10" transform="matrix(1 0 0 -1 141 70)" fill="#00FF38"/>
<rect width="10" height="10" transform="matrix(1 0 0 -1 151 80)" fill="#00FF38"/>
<rect width="10" height="10" transform="matrix(1 0 0 -1 144 40)" fill="#00FF38"/>
<rect width="10" height="10" transform="matrix(1 0 0 -1 144 30)" fill="#00FF38"/>
<rect width="10" height="10" transform="matrix(1 0 0 -1 134 30)" fill="#00FF38"/>
<rect width="10" height="10" transform="matrix(1 0 0 -1 134 20)" fill="#00FF38"/>
<rect width="10" height="10" transform="matrix(1 0 0 -1 124 20)" fill="#00FF38"/>
<rect width="10" height="10" transform="matrix(1 0 0 -1 124 10)" fill="#00FF38"/>
<rect width="10" height="10" transform="matrix(1 0 0 -1 114 10)" fill="#00FF38"/>
<rect width="10" height="10" transform="matrix(1 0 0 -1 41 20)" fill="#00FF38"/>
<rect width="10" height="10" transform="matrix(1 0 0 -1 61 50)" fill="#00FF38"/>
<rect width="10" height="10" transform="matrix(1 0 0 -1 91 80)" fill="#00FF38"/>
<rect width="10" height="10" transform="matrix(1 0 0 -1 51 40)" fill="#00FF38"/>
<rect width="10" height="10" transform="matrix(1 0 0 -1 31 20)" fill="#00FF38"/>
<rect width="10" height="10" transform="matrix(1 0 0 -1 21 10)" fill="#00FF38"/>
<rect width="10" height="10" transform="matrix(1 0 0 -1 81 70)" fill="#00FF38"/>
<rect width="10" height="10" transform="matrix(1 0 0 -1 41 30)" fill="#00FF38"/>
<rect width="10" height="10" transform="matrix(1 0 0 -1 1 80)" fill="#00FF38"/>
<rect width="10" height="10" transform="matrix(1 0 0 -1 -9 70)" fill="#00FF38"/>
<rect width="10" height="10" transform="matrix(1 0 0 -1 31 115)" fill="#E544FF"/>
<rect width="10" height="10" transform="matrix(1 0 0 -1 21 105)" fill="#E544FF"/>
<rect width="10" height="10" transform="matrix(1 0 0 -1 11 95)" fill="#E544FF"/>
<rect width="10" height="10" transform="matrix(1 0 0 -1 1 65)" fill="#E544FF"/>
<rect width="10" height="10" transform="matrix(1 0 0 -1 11 65)" fill="#E544FF"/>
<rect width="10" height="10" transform="matrix(1 0 0 -1 21 75)" fill="#E544FF"/>
<rect width="10" height="10" transform="matrix(1 0 0 -1 11 85)" fill="#E544FF"/>
<rect width="10" height="10" transform="matrix(1 0 0 -1 31 85)" fill="#E544FF"/>
<rect width="10" height="10" transform="matrix(1 0 0 -1 31 95)" fill="#E544FF"/>
<rect width="10" height="10" transform="matrix(1 0 0 -1 41 95)" fill="#E544FF"/>
<rect width="10" height="10" transform="matrix(1 0 0 -1 51 85)" fill="#E544FF"/>
<rect width="10" height="10" transform="matrix(1 0 0 -1 61 95)" fill="#E544FF"/>
<rect width="10" height="10" transform="matrix(1 0 0 -1 61 105)" fill="#E544FF"/>
<rect width="10" height="10" transform="matrix(1 0 0 -1 71 105)" fill="#E544FF"/>
<rect width="10" height="10" transform="matrix(1 0 0 -1 81 115)" fill="#E544FF"/>
<rect width="10" height="10" transform="matrix(1 0 0 -1 91 115)" fill="#E544FF"/>
<rect width="10" height="10" transform="matrix(1 0 0 -1 111 105)" fill="#E544FF"/>
<rect width="10" height="10" transform="matrix(1 0 0 -1 101 115)" fill="#E544FF"/>
<rect width="10" height="10" transform="matrix(1 0 0 -1 71 65)" fill="#E544FF"/>
<rect width="10" height="10" transform="matrix(1 0 0 -1 101 95)" fill="#E544FF"/>
<rect width="10" height="10" transform="matrix(1 0 0 -1 81 95)" fill="#E544FF"/>
<rect width="10" height="10" transform="matrix(1 0 0 -1 71 85)" fill="#E544FF"/>
<rect width="10" height="10" transform="matrix(1 0 0 -1 61 75)" fill="#E544FF"/>
<rect width="10" height="10" transform="matrix(1 0 0 -1 91 65)" fill="#E544FF"/>
<rect width="10" height="10" transform="matrix(1 0 0 -1 101 65)" fill="#E544FF"/>
<rect width="10" height="10" transform="matrix(1 0 0 -1 111 65)" fill="#E544FF"/>
<rect width="10" height="10" transform="matrix(1 0 0 -1 121 75)" fill="#E544FF"/>
<rect width="10" height="10" transform="matrix(1 0 0 -1 131 85)" fill="#E544FF"/>
<rect width="10" height="10" transform="matrix(1 0 0 -1 141 75)" fill="#E544FF"/>
<rect width="10" height="10" transform="matrix(1 0 0 -1 151 85)" fill="#E544FF"/>
<rect width="10" height="10" transform="matrix(1 0 0 -1 144 45)" fill="#E544FF"/>
<rect width="10" height="10" transform="matrix(1 0 0 -1 144 35)" fill="#E544FF"/>
<rect width="10" height="10" transform="matrix(1 0 0 -1 134 35)" fill="#E544FF"/>
<rect width="10" height="10" transform="matrix(1 0 0 -1 134 25)" fill="#E544FF"/>
<rect width="10" height="10" transform="matrix(1 0 0 -1 124 25)" fill="#E544FF"/>
<rect width="10" height="10" transform="matrix(1 0 0 -1 124 15)" fill="#E544FF"/>
<rect width="10" height="10" transform="matrix(1 0 0 -1 114 15)" fill="#E544FF"/>
<rect width="10" height="10" transform="matrix(1 0 0 -1 41 25)" fill="#E544FF"/>
<rect width="10" height="10" transform="matrix(1 0 0 -1 61 55)" fill="#E544FF"/>
<rect width="10" height="10" transform="matrix(1 0 0 -1 91 85)" fill="#E544FF"/>
<rect width="10" height="10" transform="matrix(1 0 0 -1 51 45)" fill="#E544FF"/>
<rect width="10" height="10" transform="matrix(1 0 0 -1 31 25)" fill="#E544FF"/>
<rect width="10" height="10" transform="matrix(1 0 0 -1 21 15)" fill="#E544FF"/>
<rect width="10" height="10" transform="matrix(1 0 0 -1 81 75)" fill="#E544FF"/>
<rect width="10" height="10" transform="matrix(1 0 0 -1 41 35)" fill="#E544FF"/>
<rect width="10" height="10" transform="matrix(1 0 0 -1 1 85)" fill="#E544FF"/>
<rect width="10" height="10" transform="matrix(1 0 0 -1 -9 75)" fill="#E544FF"/>
</svg>
